<svg width="36" height="50" viewBox="0 0 36 50" fill="none" xmlns="http://www.w3.org/2000/svg">
<path d="M21.2769 22.7219C18.2745 24.7861 16.5104 27.2264 14.9341 33.0812C13.3577 38.9364 14.9336 40.9263 17.2231 44.2668C19.5126 47.6073 15.6466 50.9854 12.2681 48.3957C8.8898 45.8058 8.9074 41.0242 9.07861 37.8859C9.24983 34.7477 10.9182 30.5294 13.3198 28.1271C15.7215 25.7251 18.0493 23.9229 21.2769 22.7219ZM16.4009 26.6867C13.851 28.9909 12.6422 30.6275 11.6313 32.7668C10.6206 34.9061 10.4706 37.0672 10.396 38.4348C10.3214 39.8023 10.5008 43.1456 12.1597 45.2658C13.8189 47.386 15.2751 45.6837 14.5991 43.84C13.9231 41.9964 12.6681 39.7871 12.7603 37.0832C12.8525 34.3793 13.5745 30.3736 16.4009 26.6867ZM22.0933 27.1916C22.0733 27.2182 20.8763 28.8286 20.3403 31.9553C19.665 35.8959 21.3529 36.4219 21.8784 40.175C22.4038 43.9282 20.7521 44.1468 19.0259 43.4787C17.2998 42.8104 15.6856 40.414 15.3862 37.9377C15.087 35.4616 16.316 32.5564 17.3364 31.2795C18.9782 29.2274 22.0563 27.2157 22.0933 27.1916ZM19.856 30.0275C17.7435 32.4851 17.3678 33.7992 17.105 34.925C16.8422 36.0508 16.6549 37.4775 17.105 38.9787C17.5552 40.48 18.5052 41.7761 19.481 41.8889C20.4564 42.0012 20.5314 40.875 20.3813 40.0119C20.2312 39.1486 19.5179 38.2474 19.105 36.0705C18.6922 33.8937 19.2931 31.3789 19.856 30.0275ZM19.439 22.7355C18.0504 23.3734 16.849 24.1626 14.1841 26.1379C11.5191 28.1133 9.41683 31.655 8.44092 35.9338C7.46495 40.2124 3.1485 38.2989 2.51025 35.5588C1.87224 32.8187 2.51031 31.0168 5.0249 28.3146C7.53978 25.6123 11.9695 23.7727 14.1841 23.4348C16.3982 23.097 16.6993 23.0731 19.439 22.7355ZM35.6841 17.9582C35.6841 18.7465 35.2044 21.0331 33.9282 22.6096C32.6518 24.186 29.3872 26.5137 27.6978 27.7512C26.0082 28.9887 24.4775 29.7079 23.1938 32.1476C21.9105 34.5872 23.8615 35.4878 22.8481 36.2385C21.8347 36.9888 19.9595 34.511 21.4976 32.1476C23.0358 29.7841 29.0856 25.9487 31.0386 24.5236C32.9915 23.0985 35.1586 21.524 35.6841 17.9582ZM25.3315 30.7014C25.5151 31.1153 25.9853 34.3211 26.2612 34.6887C26.8583 34.6427 27.4563 34.7801 27.686 35.1476C27.4103 35.1936 27.0425 35.1017 27.0425 35.1017C27.0425 35.1017 27.1342 35.286 27.1802 35.5617C26.9504 35.4239 26.8125 35.2854 26.3989 35.2394C25.9855 35.1936 25.6636 35.424 25.3882 35.424C25.4341 35.1024 25.7559 34.9183 25.9399 34.7805C24.8371 33.8616 24.4587 31.6213 24.4585 31.4826C24.5486 31.304 25.1018 30.7473 25.3315 30.7014ZM15.4634 24.1721C13.7371 24.6599 12.9563 24.986 11.6489 25.5041C10.3413 26.0223 8.03168 27.2834 6.38037 29.0139C4.7289 30.7445 3.30259 33.4432 4.05322 34.6818C4.80404 35.9199 6.56804 35.9567 7.24365 33.8928C7.91933 31.8285 9.26873 29.2457 10.6216 27.6623C11.9744 26.079 13.6994 24.9228 15.4634 24.1721ZM27.4907 28.9553C27.6742 29.3688 28.2832 33.5848 28.8823 34.3967C29.4793 34.3507 29.9836 34.5809 30.2134 34.9484C29.9377 34.9944 29.7075 34.9182 29.7075 34.9182C29.7075 34.9182 29.7075 35.0565 29.7534 35.3322C29.5237 35.1944 29.4334 34.9944 29.02 34.9484C28.6066 34.9025 28.2846 35.1318 28.0093 35.132C28.0553 34.8106 28.3292 34.6429 28.5132 34.5051C27.4101 33.5861 26.5259 29.8744 26.5259 29.7365C26.7096 29.5068 27.0314 29.1391 27.4907 28.9553ZM30.5513 17.5041C30.3883 20.5097 28.5745 22.1007 26.9351 23.2502C25.2959 24.3994 24.2703 24.6011 22.3188 25.8019C20.3672 27.003 18.978 27.9416 16.8013 30.5685C17.6202 27.5285 20.479 24.0755 22.6558 22.6867C24.8326 21.298 26.3721 20.7352 27.5356 19.9846C28.6992 19.2339 29.2376 18.7802 30.5513 17.5041ZM27.5493 2.56659C31.8962 2.63794 34.3097 8.00386 34.4243 8.30487C34.5368 8.60084 36.1922 12.0048 35.3462 16.3068C34.7819 19.1758 33.8159 20.8452 32.4272 22.1213C31.2789 23.1765 29.796 24.1545 29.0415 24.6525C28.8839 24.7566 28.7577 24.8402 28.6733 24.8986C28.1862 25.2359 24.9083 27.6199 24.8823 27.6389C24.8541 27.6581 22.8377 29.0377 21.9058 30.0812C21.9093 30.0574 22.0421 29.1743 22.6714 28.0637C23.3094 26.9378 23.5007 26.8623 24.2104 26.1867C24.9203 25.5112 26.0723 24.9016 26.8979 24.3762C27.7234 23.8509 28.1459 23.472 29.0415 22.7248C29.9374 21.9773 30.5014 21.0727 30.7642 20.3596C31.0267 19.6467 31.0984 18.8773 31.1489 18.2932V18.2902C31.1614 18.1471 31.1732 18.009 31.188 17.8791C31.2625 17.2223 31.1891 15.2818 31.188 15.2521C31.1807 15.2818 30.7015 17.1723 26.1958 19.756C21.9248 22.205 18.3174 21.4266 16.9038 21.1213C16.8149 21.1021 16.7338 21.084 16.6626 21.0695C15.4616 20.8243 13.5476 19.9057 12.8716 19.0051C12.1963 18.1045 11.9925 17.1467 12.5747 16.1769C13.2873 14.9908 15.039 15.3515 15.8022 16.1769C16.5649 17.0022 17.0042 17.3779 17.3794 17.7531C17.7547 18.1284 18.3556 18.7056 19.0308 19.0295C19.7067 19.3535 21.3385 19.9063 23.644 18.8557C25.9502 17.8046 28.59 14.1256 29.1987 11.7609C29.2018 11.7492 29.2121 11.7182 29.2271 11.6711C29.4284 11.0374 30.5759 7.4243 29.3882 6.31268C28.1096 5.11796 26.2717 5.03777 26.3501 5.59491C26.3501 5.74326 26.36 5.8928 26.3706 6.04608C26.4114 6.63354 26.4574 7.29427 25.9507 8.30487C25.8859 8.43395 25.6632 8.71977 25.3267 8.97186C25.1785 9.12134 24.5611 9.76436 24.354 10.2951C24.1189 10.8982 24.1157 11.1273 24.106 11.882V11.8879C23.5769 11.7293 23.2762 11.4212 23.0542 10.9631C22.8623 10.5664 22.7303 9.94258 23.0005 9.14667C22.0001 8.59138 21.8835 7.69922 21.8726 7.28925V7.10956C21.873 6.47042 22.7539 2.4885 27.5493 2.56659ZM9.19189 20.0568C11.4063 20.0568 12.1574 21.46 16.8862 22.2482C14.8527 22.4734 13.7711 22.6236 12.1948 23.1115C10.6182 23.5996 6.93969 24.8759 4.01221 28.3664C1.08499 31.8562 -0.234166 29.1705 0.0336914 27.3391C0.301873 25.5076 1.46001 23.3227 3.41162 22.009C5.36332 20.6953 6.97753 20.0569 9.19189 20.0568ZM8.59424 21.507C7.09241 21.5073 5.79001 22.2675 4.46631 23.1584C3.14253 24.0495 1.87014 25.4064 1.68799 26.6486C1.5062 27.8907 2.43893 27.5121 3.67725 26.424C4.91571 25.3357 6.71752 23.8338 7.54346 23.4582C8.36919 23.0829 8.63259 22.7081 12.3481 22.1076C9.83368 21.7698 10.0964 21.507 8.59424 21.507ZM15.0913 17.0715C14.4159 16.2169 13.5382 16.3586 13.3989 17.0715C13.2603 17.7847 14.3112 18.9876 15.3882 19.5168C16.465 20.0456 17.3772 20.3054 18.0151 20.4182C18.6532 20.5307 19.8183 20.5306 20.7183 20.4182C19.3305 20.3804 18.6713 19.9325 17.7603 19.4211C16.8493 18.9096 15.7667 17.9264 15.0913 17.0715ZM23.4478 9.28827C23.4102 9.36346 23.2229 9.62661 23.2603 10.1516C23.2971 10.6661 23.5863 10.9647 23.5981 10.9767C23.6013 10.953 23.6755 10.4072 23.7856 10.1135C23.8984 9.81347 24.1611 9.51353 24.311 9.36346C23.7862 9.4009 23.523 9.28844 23.4478 9.28827ZM24.3159 6.46112C24.3092 6.46512 23.7997 6.76817 23.5601 7.31171C23.3235 7.84884 23.5515 8.51844 23.5601 8.54315C23.5704 8.53483 23.9927 8.19217 24.231 7.65155C24.4719 7.1043 24.3159 6.46112 24.3159 6.46112ZM18.5288 4.10272C18.9896 3.90275 19.6518 4.42723 20.0483 4.62323C20.445 4.81927 21.1932 5.15887 22.3188 5.12128C21.7354 5.26975 20.2516 5.94037 19.3267 5.54901C18.4019 5.15763 18.0682 4.30277 18.5288 4.10272ZM18.2856 1.53046C18.7446 1.41412 19.4153 2.47169 19.8101 3.10565C20.2048 3.7396 21.4656 4.68111 22.3901 4.94061C21.7482 4.97843 20.0037 4.61861 18.9097 3.57147C17.816 2.52465 17.8272 1.64728 18.2856 1.53046ZM19.5796 0.0158081C20.1046 -0.133963 20.3297 0.804414 20.5933 1.81757C20.8568 2.83072 21.2115 3.82798 22.4683 4.7453C21.7413 4.41895 20.3127 3.94132 19.5796 2.23065C18.8464 0.519522 19.0544 0.165855 19.5796 0.0158081ZM21.1138 0.353699C21.7108 0.0538763 21.68 1.48033 21.8677 2.38104C22.0554 3.28181 22.3999 4.06441 22.6001 4.591C22.0045 4.13215 21.23 2.98115 20.9673 2.15546C20.7046 1.32979 20.5165 0.653987 21.1138 0.353699ZM22.3179 0.84198C22.8058 0.804434 22.769 1.49856 22.769 2.23065C22.769 2.96278 22.6147 3.57904 22.769 4.4455C22.5694 4.05078 22.3932 3.43197 22.2056 2.64374C22.018 1.85564 21.8304 0.879996 22.3179 0.84198Z" fill="#FFBD37"/>
</svg>
