<svg width="32" height="32" viewBox="0 0 32 32" fill="none" xmlns="http://www.w3.org/2000/svg">
<path fill-rule="evenodd" clip-rule="evenodd" d="M21.488 5.38731C20.144 5.32811 19.7344 5.31371 16.32 5.31371C12.8896 5.31371 12.496 5.32971 11.1392 5.40171C9.89762 5.44491 9.22722 5.66411 8.76002 5.83851C8.20817 6.04044 7.70927 6.36484 7.30082 6.78731C6.87352 7.20086 6.54438 7.70496 6.33762 8.26251C6.16162 8.71371 5.95682 9.38571 5.89922 10.6401C5.82562 11.9841 5.82562 12.3921 5.82562 15.8081C5.82562 19.2225 5.84162 19.6321 5.89922 20.9745C5.90562 21.7905 6.05442 22.6001 6.33762 23.3665C6.56962 23.9505 6.84802 24.3889 7.30082 24.8273C7.75202 25.2785 8.16162 25.5569 8.77282 25.7905C9.53122 26.0721 10.3312 26.2193 11.1392 26.2273C12.496 26.3009 12.904 26.3009 16.32 26.3009C19.7344 26.3009 20.144 26.2849 21.488 26.2273C22.7424 26.1697 23.4128 25.9649 23.8656 25.7905C24.464 25.5569 24.9024 25.2641 25.3392 24.8273C25.792 24.3745 26.0544 23.9505 26.3024 23.3521C26.5856 22.5905 26.7344 21.7857 26.7408 20.9745C26.8 19.6305 26.8144 19.2225 26.8144 15.8065C26.8144 12.3921 26.7984 11.9825 26.7264 10.6401C26.6832 9.38571 26.464 8.71371 26.288 8.24811C26.0863 7.69569 25.7619 7.19622 25.3392 6.78731C24.9227 6.36514 24.4208 6.03675 23.8672 5.82411C23.4128 5.64811 22.744 5.44491 21.488 5.38731ZM11.0352 3.08011C12.4064 3.02251 12.8448 3.00811 16.3184 3.00811C18.0784 2.98571 19.8416 3.00971 21.6016 3.08011C22.664 3.10251 23.7152 3.30411 24.7104 3.67851C25.5616 4.00229 26.3332 4.5054 26.9728 5.15371C27.6288 5.78891 28.1376 6.56171 28.4608 7.41611C28.8288 8.41131 29.0272 9.46251 29.0448 10.5233C29.12 11.8961 29.12 12.3185 29.12 15.8081C29.12 19.2801 29.104 19.7185 29.0464 21.0753C28.9888 22.4481 28.7696 23.3825 28.448 24.1841C28.128 25.0321 27.6896 25.7457 26.976 26.4609C26.3383 27.1123 25.5655 27.6158 24.712 27.9361C23.896 28.2417 22.96 28.4753 21.6032 28.5345C20.232 28.5921 19.808 28.6065 16.32 28.6065C12.8464 28.6065 12.408 28.5921 11.0368 28.5185C9.67842 28.4753 8.74562 28.2561 7.92802 27.9361C7.08083 27.6045 6.31078 27.1024 5.66562 26.4609C5.01703 25.8134 4.51029 25.0381 4.17762 24.1841C3.88482 23.3681 3.65122 22.4481 3.59362 21.0753C3.53442 19.7201 3.52002 19.2673 3.52002 15.8065C3.52002 12.3489 3.52002 11.9105 3.60802 10.5233C3.65122 9.16651 3.87042 8.23211 4.19202 7.41611C4.5336 6.57484 5.03328 5.80684 5.66402 5.15371C6.30927 4.50845 7.07974 4.00206 7.92802 3.66571C8.74402 3.37291 9.67682 3.13771 11.0352 3.08011ZM11.7184 10.7697C12.3258 10.1489 13.0504 9.65467 13.8501 9.31572C14.6498 8.97677 15.5087 8.7998 16.3773 8.79505C17.2458 8.79031 18.1067 8.95788 18.9101 9.28807C19.7134 9.61826 20.4433 10.1045 21.0575 10.7187C21.6716 11.3328 22.1579 12.0627 22.4881 12.8661C22.8182 13.6694 22.9858 14.5303 22.9811 15.3988C22.9763 16.2674 22.7994 17.1264 22.4604 17.9261C22.1215 18.7258 21.6273 19.4503 21.0064 20.0577C19.7702 21.2672 18.1068 21.9403 16.3773 21.9309C14.6478 21.9214 12.9918 21.2302 11.7689 20.0072C10.5459 18.7843 9.85472 17.1283 9.84527 15.3988C9.83582 13.6694 10.5089 12.0059 11.7184 10.7697ZM14.7296 19.3633C15.7756 19.7966 16.9509 19.7966 17.9969 19.3633C19.0429 18.93 19.874 18.0989 20.3072 17.0529C20.7405 16.0069 20.7405 14.8316 20.3072 13.7856C19.8739 12.7396 19.0428 11.9086 17.9968 11.4753C16.9508 11.0421 15.7755 11.0421 14.7295 11.4754C13.6835 11.9086 12.8525 12.7397 12.4192 13.7857C11.986 14.8317 11.986 16.007 12.4193 17.053C12.8525 18.099 13.6836 18.9301 14.7296 19.3633ZM24.2048 9.85611C24.0625 9.99846 23.8935 10.1114 23.7075 10.1884C23.5215 10.2655 23.3221 10.3051 23.1208 10.3051C22.9195 10.3051 22.7202 10.2655 22.5342 10.1884C22.3482 10.1114 22.1792 9.99846 22.0368 9.85611C21.8945 9.71376 21.7815 9.54476 21.7045 9.35877C21.6275 9.17277 21.5878 8.97343 21.5878 8.77211C21.5878 8.57079 21.6275 8.37145 21.7045 8.18545C21.7815 7.99946 21.8945 7.83046 22.0368 7.68811C22.3243 7.40062 22.7142 7.2391 23.1208 7.2391C23.5274 7.2391 23.9173 7.40062 24.2048 7.68811C24.4923 7.9756 24.6538 8.36553 24.6538 8.77211C24.6538 9.17869 24.4923 9.56861 24.2048 9.85611Z" fill="#901CDB"/>
</svg>
