<svg width="16" height="16" viewBox="0 0 16 16" fill="none" xmlns="http://www.w3.org/2000/svg">
<path d="M7.99984 8C8.3665 8 8.68039 7.86945 8.9415 7.60833C9.20262 7.34722 9.33317 7.03333 9.33317 6.66667C9.33317 6.3 9.20262 5.98611 8.9415 5.725C8.68039 5.46389 8.3665 5.33333 7.99984 5.33333C7.63317 5.33333 7.31928 5.46389 7.05817 5.725C6.79706 5.98611 6.6665 6.3 6.6665 6.66667C6.6665 7.03333 6.79706 7.34722 7.05817 7.60833C7.31928 7.86945 7.63317 8 7.99984 8ZM7.99984 12.9C9.35539 11.6556 10.3609 10.525 11.0165 9.50833C11.6721 8.49167 11.9998 7.58889 11.9998 6.8C11.9998 5.58889 11.6137 4.59722 10.8415 3.825C10.0693 3.05278 9.12206 2.66667 7.99984 2.66667C6.87761 2.66667 5.93039 3.05278 5.15817 3.825C4.38595 4.59722 3.99984 5.58889 3.99984 6.8C3.99984 7.58889 4.32762 8.49167 4.98317 9.50833C5.63873 10.525 6.64428 11.6556 7.99984 12.9ZM7.99984 14.6667C6.21095 13.1444 4.87484 11.7306 3.9915 10.425C3.10817 9.11945 2.6665 7.91111 2.6665 6.8C2.6665 5.13333 3.20262 3.80556 4.27484 2.81667C5.34706 1.82778 6.58873 1.33333 7.99984 1.33333C9.41095 1.33333 10.6526 1.82778 11.7248 2.81667C12.7971 3.80556 13.3332 5.13333 13.3332 6.8C13.3332 7.91111 12.8915 9.11945 12.0082 10.425C11.1248 11.7306 9.78873 13.1444 7.99984 14.6667Z" fill="#901CDB"/>
</svg>
