<svg width="51" height="71" viewBox="0 0 51 71" fill="none" xmlns="http://www.w3.org/2000/svg">
<path d="M30.2134 32.2646C25.9495 35.1961 23.4442 38.6609 21.2056 46.9756C18.9669 55.2905 21.2052 58.1156 24.4565 62.8594C27.7075 67.603 22.218 72.3992 17.4204 68.7217C12.623 65.0439 12.648 58.2544 12.8911 53.7979C13.1344 49.3414 15.5031 43.3516 18.9136 39.9404C22.3242 36.5293 25.6297 33.9702 30.2134 32.2646ZM23.2905 37.8945C19.669 41.167 17.9536 43.4912 16.5181 46.5293C15.0825 49.5674 14.8682 52.6361 14.7622 54.5781C14.6563 56.5205 14.912 61.2679 17.2681 64.2783C19.6242 67.2887 21.6918 64.8708 20.7319 62.2529C19.772 59.635 17.9898 56.4987 18.1206 52.6592C18.2515 48.8194 19.2762 43.1306 23.2905 37.8945ZM31.3726 38.6113C31.3508 38.6403 29.646 40.9269 28.8833 45.375C27.924 50.9713 30.3225 51.7184 31.0688 57.0479C31.815 62.3778 29.4694 62.687 27.0181 61.7383C24.5668 60.7895 22.2742 57.3877 21.8491 53.8711C21.4244 50.3547 23.1696 46.2289 24.6187 44.416C26.9531 41.4984 31.3314 38.6382 31.3726 38.6113ZM28.1958 42.6377C25.196 46.1274 24.6628 47.9941 24.2896 49.5928C23.9163 51.1915 23.6503 53.2176 24.2896 55.3496C24.9289 57.4817 26.2778 59.3215 27.6636 59.4814C29.0485 59.6406 29.155 58.042 28.9419 56.8164C28.7285 55.5906 27.7156 54.3108 27.1294 51.2197C26.5432 48.1283 27.3965 44.5565 28.1958 42.6377ZM27.603 32.2852C25.6311 33.191 23.9245 34.3112 20.1401 37.1162C16.3559 39.9215 13.3716 44.9515 11.9858 51.0273C10.6 57.1035 4.47001 54.3854 3.56396 50.4941C2.65803 46.6031 3.56417 44.0444 7.13525 40.207C10.7064 36.3697 16.9963 33.7572 20.1411 33.2773C23.2852 32.7977 23.7128 32.7645 27.603 32.2852ZM50.6724 25.501C50.6723 26.6205 49.9914 29.8669 48.1792 32.1055C46.3667 34.3441 41.7307 37.65 39.3315 39.4072C36.9324 41.1645 34.7588 42.185 32.936 45.6494C31.1134 49.1137 33.8841 50.3931 32.4458 51.459C31.0067 52.5249 28.3425 49.0057 30.5269 45.6494C32.7112 42.2932 41.3024 36.8469 44.0757 34.8232C46.8489 32.7996 49.9261 30.5643 50.6724 25.501ZM35.9712 43.5957C36.2318 44.1829 36.8996 48.7354 37.2915 49.2578C38.1393 49.1925 38.9877 49.3883 39.314 49.9102C38.9225 49.9753 38.4009 49.8447 38.4009 49.8447C38.4009 49.8447 38.5309 50.1058 38.5962 50.4971C38.2701 50.3014 38.0739 50.1062 37.4868 50.041C36.8997 49.9759 36.4423 50.3017 36.0513 50.3018C36.1165 49.845 36.5741 49.5844 36.8354 49.3887C35.2691 48.0837 34.731 44.9008 34.731 44.7051C34.8589 44.4514 35.645 43.6609 35.9712 43.5957ZM21.9585 34.3232C19.5071 35.016 18.3989 35.4802 16.5425 36.2158C14.6857 36.9516 11.4042 38.7418 9.05908 41.1992C6.71411 43.6567 4.68988 47.4891 5.75537 49.248C6.82147 51.0065 9.32627 51.0592 10.2856 48.1279C11.2451 45.1966 13.1614 41.5288 15.0825 39.2803C17.0037 37.0318 19.4535 35.3892 21.9585 34.3232ZM39.0376 41.1172C39.2982 41.7044 40.1623 47.6926 41.0132 48.8447C41.861 48.7794 42.5766 49.106 42.9028 49.6279C42.5114 49.6931 42.1851 49.585 42.1851 49.585C42.1851 49.5916 42.1864 49.7872 42.2505 50.1719C41.9243 49.9761 41.7957 49.6932 41.2085 49.6279C40.6213 49.5628 40.164 49.8886 39.7729 49.8887C39.8382 49.432 40.2274 49.1928 40.4888 48.9971C38.9226 47.6918 37.6676 42.4228 37.6675 42.2266C37.9285 41.9003 38.3852 41.3782 39.0376 41.1172ZM43.3833 24.8564C43.1517 29.1241 40.5765 31.3834 38.2485 33.0156C35.9208 34.6476 34.4643 34.9342 31.6929 36.6396C28.9213 38.3452 26.9493 39.6782 23.8579 43.4092C25.0204 39.0919 29.081 34.1881 32.1724 32.2158C35.2637 30.2438 37.4498 29.4439 39.1021 28.3779C40.7539 27.3122 41.5183 26.6681 43.3833 24.8564ZM39.1196 3.64453C45.2956 3.74606 48.7231 11.3733 48.8823 11.793C49.0415 12.2123 51.3923 17.0457 50.1909 23.1553C49.3897 27.2292 48.0182 29.6 46.0464 31.4121C44.4158 32.9105 42.3102 34.2996 41.2388 35.0068C41.015 35.1545 40.8362 35.2735 40.7163 35.3564C40.0273 35.8335 35.3896 39.2055 35.3325 39.2471C35.3119 39.2612 32.433 41.2288 31.105 42.7158C31.1093 42.6865 31.2968 41.4304 32.1919 39.8506C33.0977 38.2523 33.3699 38.1445 34.3774 37.1855C35.3854 36.2263 37.0214 35.3603 38.1938 34.6143C39.3661 33.8682 39.9667 33.3299 41.2388 32.2686C42.5107 31.2072 43.311 29.9237 43.6841 28.9111C44.057 27.8987 44.1592 26.8062 44.231 25.9766V25.9717C44.2486 25.7685 44.2656 25.5731 44.2866 25.3887C44.3924 24.457 44.2884 21.7044 44.2866 21.6582C44.2748 21.7061 43.5888 24.3888 37.1978 28.0537C31.1325 31.5317 26.0097 30.4258 24.0024 29.9922C23.8759 29.9648 23.7609 29.9406 23.6597 29.9199C21.9543 29.5719 19.237 28.2673 18.2769 26.9883C17.3173 25.7092 17.0279 24.3482 17.855 22.9707C18.8671 21.2863 21.3554 21.7983 22.439 22.9707C23.5221 24.1428 24.1444 24.6762 24.6772 25.209C25.2103 25.742 26.0637 26.5615 27.0229 27.0215C27.9826 27.4815 30.2994 28.2665 33.5737 26.7744C36.8484 25.2817 40.5979 20.0589 41.4624 16.7012C41.4667 16.6849 41.4801 16.6405 41.5015 16.5732C41.7873 15.6735 43.4175 10.5419 41.73 8.96387C39.9139 7.26643 37.3037 7.15341 37.4165 7.94531C37.4165 8.15591 37.4307 8.36735 37.4458 8.58496C37.5037 9.41926 37.5688 10.3577 36.8491 11.793C36.7571 11.9763 36.441 12.3824 35.9634 12.7402C35.7527 12.9528 34.8765 13.8657 34.5825 14.6191C34.2487 15.4755 34.2438 15.8004 34.23 16.8721V16.8809C33.4782 16.6557 33.0522 16.2182 32.7368 15.5674C32.4641 15.0041 32.2758 14.118 32.6597 12.9873C31.036 12.0864 31.0531 10.5619 31.0581 10.1465L31.0591 10.0957C31.0594 9.18879 32.309 3.53337 39.1196 3.64453ZM13.0532 28.4805C16.1979 28.4805 17.2642 30.4715 23.98 31.5908C21.0918 31.9106 19.5563 32.1246 17.3179 32.8174C15.0792 33.5103 9.85516 35.3224 5.69775 40.2793C1.54049 45.2359 -0.332411 41.4211 0.0483398 38.8203C0.42919 36.2195 2.07365 33.1175 4.84521 31.252C7.61682 29.3864 9.90852 28.4805 13.0532 28.4805ZM12.2046 30.54C10.0714 30.54 8.22144 31.6193 6.34131 32.8848C4.46117 34.1503 2.65534 36.0775 2.39697 37.8418C2.13872 39.6059 3.46337 39.068 5.22217 37.5225C6.98083 35.977 9.53859 33.8449 10.7114 33.3115C11.884 32.7785 12.258 32.2454 17.5347 31.3926C13.9637 30.9129 14.3375 30.5401 12.2046 30.54ZM21.4292 24.2412C20.4701 23.0273 19.2239 23.2291 19.0259 24.2412C18.8288 25.2541 20.3213 26.9636 21.8511 27.7148C23.3807 28.466 24.6757 28.8342 25.5815 28.9941C26.4876 29.154 28.1413 29.1538 29.4194 28.9941C27.4486 28.9406 26.5139 28.3043 25.2202 27.5781C23.9262 26.8518 22.3885 25.4556 21.4292 24.2412ZM33.2964 13.1904C33.2429 13.2974 32.9767 13.6709 33.0298 14.416C33.0825 15.1524 33.4986 15.5781 33.5093 15.5889C33.512 15.5685 33.6182 14.7842 33.7759 14.3633C33.9358 13.9371 34.3089 13.5101 34.522 13.2969C33.777 13.3501 33.4035 13.1908 33.2964 13.1904ZM34.5288 9.17578C34.5076 9.18839 33.793 9.61732 33.4556 10.3828C33.1174 11.151 33.4479 12.1098 33.4556 12.1318C33.469 12.121 34.0691 11.6336 34.4077 10.8652C34.7442 10.1011 34.5359 9.2056 34.5288 9.17578ZM26.3101 5.8252C26.9642 5.54127 27.9041 6.28601 28.4673 6.56445C29.0304 6.84275 30.093 7.32478 31.6919 7.27148C30.8631 7.4825 28.7572 8.43544 27.4438 7.87988C26.1305 7.32422 25.6562 6.10942 26.3101 5.8252ZM25.9663 2.17188C26.618 2.00705 27.5699 3.50902 28.1304 4.40918C28.6909 5.30942 30.4815 6.64618 31.7944 7.01465C30.8831 7.06846 28.4058 6.55741 26.8521 5.07031C25.2986 3.58332 25.3146 2.33707 25.9663 2.17188ZM27.8032 0.0224609C28.5488 -0.190285 28.8674 1.14232 29.2417 2.58105C29.616 4.01981 30.1208 5.43564 31.9058 6.73828C30.8736 6.27484 28.8444 5.59675 27.8032 3.16699C26.762 0.737143 27.0575 0.235532 27.8032 0.0224609ZM29.9819 0.501953C30.8296 0.0764912 30.7858 2.10189 31.0522 3.38086C31.3187 4.65982 31.8081 5.7708 32.0923 6.51855C31.2465 5.86687 30.146 4.23297 29.7729 3.06055C29.3999 1.88814 29.1338 0.928357 29.9819 0.501953ZM31.6919 1.19531C32.3847 1.142 32.3316 2.1275 32.3315 3.16699C32.3315 4.20649 32.1125 5.0814 32.3315 6.31152C32.0482 5.75103 31.799 4.87282 31.5327 3.75391C31.2663 2.63464 30.9993 1.24894 31.6919 1.19531Z" fill="#901CDB"/>
</svg>
