<svg width="36" height="36" viewBox="0 0 36 36" fill="none" xmlns="http://www.w3.org/2000/svg">
<rect width="36" height="36" rx="8" fill="#F8F8F9"/>
<path d="M20.8887 10.156C20.8887 10.035 21.0183 9.96626 21.1166 10.0167L21.1558 10.0459L28.9546 17.7853C29.0078 17.8384 29.0141 17.9199 28.9742 17.98L28.9546 18.0048L21.1558 25.7434C21.0573 25.8412 20.8888 25.7723 20.8887 25.6341V22.3151C20.8887 21.7693 20.4695 21.3113 19.9238 21.2662L19.8129 21.2624C14.7107 21.3653 10.7469 22.7541 7.66769 25.6498L7.3727 25.9343C7.30102 26.0053 7.19047 26.021 7.08903 25.9703C7.04126 25.9464 7.0163 25.9162 7.00679 25.8969C7.00376 25.8907 7.00085 25.8823 7 25.8699L7.00754 25.8183C8.72099 20.5755 12.435 15.8662 19.6363 14.5375L19.9827 14.4768C20.492 14.3916 20.8887 13.956 20.8887 13.4241V10.156Z" stroke="black" stroke-width="1.02427"/>
</svg>
