<svg width="30" height="30" viewBox="0 0 30 30" fill="none" xmlns="http://www.w3.org/2000/svg">
<path d="M22.5289 6.92483C22.0559 6.42033 21.4945 6.02013 20.8764 5.74708C20.2584 5.47404 19.596 5.3335 18.9271 5.3335C18.258 5.3335 17.5956 5.47404 16.9776 5.74708C16.3596 6.02013 15.7981 6.42033 15.3251 6.92483L14.3437 7.97135L13.3621 6.92483C12.4069 5.90625 11.1113 5.33402 9.76032 5.33402C8.40936 5.33402 7.11372 5.90625 6.15845 6.92483C5.20317 7.9434 4.6665 9.32488 4.6665 10.7654C4.6665 12.2058 5.20317 13.5874 6.15845 14.6059L7.13993 15.6524L14.3437 23.3335L21.5474 15.6524L22.5289 14.6059C23.0021 14.1016 23.3774 13.5029 23.6334 12.844C23.8896 12.1849 24.0213 11.4787 24.0213 10.7654C24.0213 10.0521 23.8896 9.34575 23.6334 8.68678C23.3774 8.02781 23.0021 7.42908 22.5289 6.92483Z" stroke="#141416" stroke-width="1.20968" stroke-linecap="round" stroke-linejoin="round"/>
</svg>
