<svg width="9" height="5" viewBox="0 0 9 5" fill="none" xmlns="http://www.w3.org/2000/svg">
<path fill-rule="evenodd" clip-rule="evenodd" d="M7.79192 0.539588C7.75323 0.500801 7.70727 0.470028 7.65667 0.449031C7.60607 0.428034 7.55183 0.417226 7.49704 0.417226C7.44226 0.417226 7.38801 0.428034 7.33741 0.449031C7.28681 0.470028 7.24085 0.500801 7.20216 0.539588L4.16504 3.57754L1.12792 0.539588C1.04972 0.461381 0.943644 0.417444 0.833042 0.417444C0.72244 0.417444 0.616367 0.461381 0.53816 0.539588C0.459952 0.617796 0.416016 0.723868 0.416016 0.83447C0.416016 0.945072 0.459952 1.05114 0.53816 1.12935L3.87016 4.46135C3.90885 4.50014 3.95481 4.53091 4.00541 4.55191C4.05601 4.57291 4.11026 4.58371 4.16504 4.58371C4.21983 4.58371 4.27407 4.57291 4.32467 4.55191C4.37527 4.53091 4.42123 4.50014 4.45992 4.46135L7.79192 1.12935C7.83071 1.09066 7.86148 1.0447 7.88248 0.994101C7.90348 0.9435 7.91429 0.889254 7.91429 0.83447C7.91429 0.779686 7.90348 0.72544 7.88248 0.674839C7.86148 0.624239 7.83071 0.578277 7.79192 0.539588Z" fill="black"/>
</svg>
