<svg width="19" height="19" viewBox="0 0 19 19" fill="none" xmlns="http://www.w3.org/2000/svg">
<path d="M6.07353 4.25C6.07353 3.45436 6.40819 2.69129 7.00387 2.12868C7.5996 1.56607 8.40758 1.25 9.25 1.25C10.0924 1.25 10.9004 1.56607 11.4961 2.12868C12.0918 2.69129 12.4265 3.45436 12.4265 4.25C12.4265 5.04565 12.0918 5.80871 11.4961 6.37132C10.9004 6.93395 10.0924 7.25 9.25 7.25C8.40758 7.25 7.5996 6.93395 7.00387 6.37132C6.40819 5.80871 6.07353 5.04565 6.07353 4.25ZM9.25 0.25C8.12669 0.25 7.04944 0.671427 6.25519 1.42157C5.46092 2.17172 5.01471 3.18914 5.01471 4.25C5.01471 5.31086 5.46092 6.32828 6.25519 7.07839C7.04944 7.82855 8.12669 8.25 9.25 8.25C10.3733 8.25 11.4506 7.82855 12.2448 7.07839C13.0391 6.32828 13.4853 5.31086 13.4853 4.25C13.4853 3.18914 13.0391 2.17172 12.2448 1.42157C11.4506 0.671427 10.3733 0.25 9.25 0.25ZM15.1582 12.4C16.3441 13.22 17.0959 14.64 17.1806 17.25H1.31941C1.40412 14.65 2.15588 13.22 3.33118 12.4C4.65471 11.5 6.60294 11.25 9.25 11.25C11.8971 11.25 13.8559 11.51 15.1582 12.4ZM9.25 10.25C6.60294 10.25 4.32647 10.49 2.71706 11.6C1.06529 12.73 0.25 14.68 0.25 17.75V18.25H18.25V17.75C18.25 14.68 17.4347 12.73 15.7829 11.6C14.1735 10.5 11.8971 10.25 9.25 10.25Z" fill="black" stroke="black" stroke-width="0.5"/>
</svg>
