<svg width="19" height="19" viewBox="0 0 19 19" fill="none" xmlns="http://www.w3.org/2000/svg">
<path fill-rule="evenodd" clip-rule="evenodd" d="M0.25 0.686734V1.12343L1.26011 1.13312L2.27022 1.14277L2.72124 2.9101C3.20801 4.81748 4.81388 10.9626 5.38281 13.095C5.57529 13.8165 5.73315 14.4155 5.73356 14.426C5.73402 14.4365 5.63836 14.5175 5.52101 14.6061C4.56406 15.3285 4.45173 16.7865 5.28673 17.647C5.56344 17.9322 5.82557 18.0869 6.19714 18.1842C7.23581 18.4565 8.2821 17.8122 8.54742 16.7369C8.67113 16.2355 8.61855 15.754 8.39161 15.311L8.27371 15.081H10.7121H13.1504L13.0327 15.3269C12.8794 15.6473 12.8229 15.9055 12.826 16.2702C12.8306 16.8043 13.0298 17.2891 13.3996 17.6665C14.1668 18.4494 15.3635 18.4438 16.1269 17.6536C16.5182 17.2486 16.7031 16.7915 16.7031 16.2289C16.7031 15.3647 16.1786 14.6048 15.3716 14.2995C15.1772 14.226 15.1006 14.2244 10.8876 14.2065L6.60139 14.1882L6.48517 13.751C6.42123 13.5105 6.36023 13.2727 6.34961 13.2226L6.33031 13.1315H10.7697H15.209L15.4835 12.9956C15.8302 12.824 16.1192 12.5337 16.2732 12.2023C16.3959 11.9385 18.25 4.83377 18.25 4.62769C18.25 4.47935 18.1675 4.31103 18.0651 4.25036C18.0021 4.21308 16.5803 4.20007 10.9731 4.1855L3.95986 4.16728L3.48304 2.34529C3.22077 1.34319 2.98677 0.486564 2.96301 0.441677C2.86548 0.257508 2.80751 0.25 1.48223 0.25H0.25V0.686734ZM17.2545 5.12382C17.246 5.13884 16.8542 6.65065 16.3838 8.48347C15.441 12.1556 15.4902 12.007 15.1546 12.2023L14.9981 12.2934L10.8203 12.3031C8.07782 12.3094 6.59707 12.3001 6.51017 12.2758C6.43736 12.2555 6.32458 12.2017 6.25954 12.1562C6.00666 11.9796 5.97889 11.9015 5.43941 9.85185C5.15981 8.78968 4.77285 7.33024 4.57946 6.60875C4.38606 5.88724 4.21703 5.2518 4.20385 5.1967L4.17987 5.09649H10.7248C14.3246 5.09649 17.2629 5.10881 17.2545 5.12382ZM7.12306 15.2072C7.50815 15.3878 7.75242 15.7848 7.75339 16.2317C7.75427 16.6859 7.51798 17.0672 7.10548 17.2768C6.98242 17.3394 6.88476 17.3572 6.66602 17.3572C6.44724 17.3572 6.34961 17.3394 6.22656 17.2768C5.96767 17.1452 5.81583 16.9901 5.69299 16.7315C5.23828 15.7741 6.18353 14.7666 7.12306 15.2072ZM15.2515 15.231C16.0773 15.64 16.0516 16.8759 15.209 17.274C14.9616 17.3908 14.5774 17.3894 14.3206 17.2706C14.0787 17.1588 13.8114 16.8579 13.731 16.6072C13.651 16.3577 13.6741 15.9608 13.7811 15.7444C13.9481 15.4069 14.2184 15.191 14.5632 15.1199C14.7874 15.0736 15.0043 15.1087 15.2515 15.231Z" fill="black" stroke="black" stroke-width="0.5"/>
</svg>
