<svg width="8" height="5" viewBox="0 0 8 5" fill="none" xmlns="http://www.w3.org/2000/svg">
<path fill-rule="evenodd" clip-rule="evenodd" d="M7.37591 0.122363C7.33722 0.0835754 7.29126 0.052802 7.24066 0.031805C7.19006 0.010808 7.13581 0 7.08103 0C7.02624 0 6.972 0.010808 6.9214 0.031805C6.87079 0.052802 6.82483 0.0835754 6.78614 0.122363L3.74903 3.16031L0.711908 0.122363C0.633701 0.044155 0.527628 0.000218388 0.417026 0.000218388C0.306424 0.000218388 0.200352 0.044155 0.122144 0.122363C0.0439366 0.20057 0 0.306642 0 0.417245C0 0.527847 0.0439366 0.633919 0.122144 0.712126L3.45414 4.04413C3.49283 4.08291 3.53879 4.11369 3.5894 4.13468C3.64 4.15568 3.69424 4.16649 3.74903 4.16649C3.80381 4.16649 3.85806 4.15568 3.90866 4.13468C3.95926 4.11369 4.00522 4.08291 4.04391 4.04413L7.37591 0.712126C7.4147 0.673437 7.44547 0.627476 7.46647 0.576875C7.48746 0.526275 7.49827 0.472029 7.49827 0.417245C7.49827 0.36246 7.48746 0.308214 7.46647 0.257614C7.44547 0.207013 7.4147 0.161052 7.37591 0.122363Z" fill="#901CDB"/>
</svg>
