<svg width="20" height="19" viewBox="0 0 20 19" fill="none" xmlns="http://www.w3.org/2000/svg">
<path d="M17.3621 2.25292C16.9222 1.77645 16.4 1.39848 15.8252 1.1406C15.2505 0.882733 14.6344 0.75 14.0123 0.75C13.3901 0.75 12.7741 0.882733 12.1994 1.1406C11.6246 1.39848 11.1024 1.77645 10.6625 2.25292L9.74977 3.24131L8.83695 2.25292C7.94858 1.29094 6.74364 0.750495 5.48725 0.750495C4.23085 0.750495 3.02591 1.29094 2.13751 2.25292C1.2491 3.21491 0.75 4.51964 0.75 5.8801C0.75 7.24054 1.2491 8.54532 2.13751 9.50729L3.05029 10.4957L9.74977 17.75L16.4492 10.4957L17.3621 9.50729C17.8021 9.03103 18.1511 8.46558 18.3892 7.84323C18.6274 7.22082 18.75 6.55377 18.75 5.8801C18.75 5.20642 18.6274 4.53936 18.3892 3.91699C18.1511 3.29463 17.8021 2.72917 17.3621 2.25292Z" stroke="black" stroke-width="1.5" stroke-linecap="round" stroke-linejoin="round"/>
</svg>
